<svg width="557" height="567" viewBox="0 0 557 567" fill="none" xmlns="http://www.w3.org/2000/svg">
<path d="M320.778 566.949C396.278 565.608 513.077 536.909 546.695 463.139C558.439 437.376 557.642 399.5 556.048 323.746C555.581 301.483 554.803 269.032 549.359 228.764C538.062 145.116 530.362 88.1849 501.236 55.0138C428.263 -28.0695 164.644 -25.6585 52.0646 123.903C-9.33893 205.489 -18.7886 321.569 37.3651 417.485C99.1963 523.123 219.709 568.738 320.778 566.949Z" fill="url(#paint0_linear_39_3286)" fill-opacity="0.17"/>
<path d="M217.734 310.474C220.553 310.96 227.106 309.502 228.661 308.432C238.986 301.238 259.208 289.028 262.338 276.097C262.863 273.881 253.783 268.923 253.044 266.512C248.027 261.942 246.005 260.659 243.361 253.97C235.583 234.196 273.518 213.119 243.186 192.392C220.962 177.206 197.649 179.326 211.92 142.013C226.212 104.681 217.17 25.9725 168.794 40.2831C141.028 48.4884 154.581 88.0759 135.39 108.375C117.151 127.663 121.079 149.304 141.067 170.323C161.055 191.342 144.956 197.875 131.345 217.338C114.993 240.71 153.511 257.49 171.944 263.712C186.76 268.689 221.195 291.477 217.734 310.474Z" fill="url(#paint1_linear_39_3286)"/>
<path d="M244.819 293.247L245.228 292.8C176.727 229.024 153.472 131.494 183.066 31.9417L182.483 31.7667C168.464 78.9568 166.286 127.527 176.163 172.248C186.566 219.263 210.287 261.106 244.819 293.247Z" fill="#FCFDFE"/>
<path d="M123.412 226.224C149 225.699 187.985 237.365 210.307 252.24L210.637 251.734C188.238 236.802 149.097 225.077 123.393 225.621L123.412 226.224Z" fill="#FCFDFE"/>
<path d="M231.5 280.569L232.025 280.258C224.851 268.3 223.995 253.173 229.498 235.324C233.522 222.219 240.814 207.986 251.139 192.975L250.633 192.625C240.269 207.675 232.959 221.966 228.914 235.129C223.373 253.173 224.248 268.456 231.5 280.569Z" fill="#FCFDFE"/>
<path d="M174.997 165.851L175.541 165.559C163.175 142.324 138.598 129.627 120.165 123.055L119.971 123.619C138.306 130.172 162.728 142.791 174.997 165.851Z" fill="#FCFDFE"/>
<path d="M170.136 105.809L170.719 105.945C177.291 77.0513 201.168 57.0825 214.818 47.7689L214.468 47.2634C200.76 56.6353 176.766 76.7013 170.136 105.809Z" fill="#FCFDFE"/>
<path d="M231.889 296.261C234.592 295.366 239.706 291.011 240.561 289.319C246.297 278.12 258.411 257.84 255.086 244.949C254.522 242.751 244.158 242.615 242.369 240.846C235.778 239.174 233.406 238.999 227.923 234.313C211.765 220.527 235.35 184.089 198.835 180.026C172.08 177.051 152.5 189.903 147.562 150.238C142.623 110.572 97.6687 45.3386 61.6783 80.7068C41.029 101.006 71.5946 129.569 64.1866 156.499C57.1479 182.087 70.778 199.353 98.291 208.511C125.804 217.669 114.663 231.007 111.804 254.593C108.363 282.903 150.225 279.617 169.436 276.467C184.913 273.92 226.017 277.867 231.889 296.261Z" fill="url(#paint2_linear_39_3286)"/>
<path d="M247.697 268.32L247.852 267.737C157.4 243.626 91.0577 168.457 70.3889 66.6879L69.7862 66.8045C79.5859 115.045 100.488 158.949 130.237 193.792C161.522 230.385 202.121 256.168 247.697 268.32Z" fill="#FCFDFE"/>
<path d="M109.043 266.201C131.384 253.698 171.283 245.687 197.979 248.332L198.037 247.729C171.244 245.065 131.19 253.115 108.752 265.676L109.043 266.201Z" fill="#FCFDFE"/>
<path d="M229.984 263.381L230.295 262.856C218.356 255.682 210.482 242.732 206.943 224.377C204.337 210.922 204.065 194.92 206.146 176.837L205.543 176.759C203.462 194.92 203.735 210.961 206.34 224.494C209.937 243.024 217.89 256.109 229.984 263.381Z" fill="#FCFDFE"/>
<path d="M126.212 188.659L126.543 188.153C104.727 173.454 77.0581 173.784 57.6921 176.662L57.7893 177.265C77.0387 174.406 104.552 174.076 126.212 188.659Z" fill="#FCFDFE"/>
<path d="M93.7021 137.949L94.2854 137.794C86.5079 109.192 98.213 80.3568 105.874 65.7157L105.329 65.424C97.6297 80.1624 85.8663 109.153 93.7021 137.949Z" fill="#FCFDFE"/>
<path d="M377.601 381.094C374.782 381.58 368.229 380.122 366.673 379.052C356.349 371.858 336.127 359.647 332.997 346.717C332.472 344.501 341.552 339.543 342.291 337.132C347.307 332.562 349.33 331.279 351.974 324.59C359.751 304.816 321.817 283.739 352.149 263.012C374.373 247.826 397.686 249.946 383.415 212.633C369.123 175.301 378.165 96.5924 426.541 110.903C454.307 119.108 440.754 158.696 459.945 178.995C478.184 198.283 474.256 219.924 454.268 240.943C434.28 261.962 450.379 268.495 463.99 287.958C480.342 311.33 441.824 328.11 423.391 334.332C408.575 339.309 374.14 362.097 377.601 381.094Z" fill="url(#paint3_linear_39_3286)"/>
<path d="M350.516 363.847L350.107 363.4C418.608 299.624 441.863 202.094 412.269 102.542L412.852 102.367C426.871 149.557 429.049 198.128 419.172 242.849C408.769 289.883 385.028 331.726 350.516 363.847Z" fill="#FCFDFE"/>
<path d="M471.923 296.844C446.335 296.319 407.35 307.985 385.028 322.86L384.698 322.354C407.097 307.421 446.237 295.697 471.942 296.241L471.923 296.844Z" fill="#FCFDFE"/>
<path d="M363.835 351.189L363.31 350.878C370.485 338.92 371.34 323.793 365.837 305.944C361.813 292.839 354.521 278.606 344.197 263.595L344.702 263.245C355.066 278.295 362.376 292.586 366.421 305.749C371.962 323.793 371.087 339.076 363.835 351.189Z" fill="#FCFDFE"/>
<path d="M420.338 236.452L419.794 236.16C432.16 212.925 456.737 200.228 475.17 193.656L475.364 194.22C457.029 200.772 432.588 213.411 420.338 236.452Z" fill="#FCFDFE"/>
<path d="M425.199 176.429L424.616 176.565C418.044 147.671 394.167 127.702 380.517 118.389L380.867 117.883C394.575 127.255 418.569 147.321 425.199 176.429Z" fill="#FCFDFE"/>
<path d="M363.446 366.861C360.743 365.967 355.629 361.611 354.774 359.92C349.038 348.72 336.924 328.44 340.249 315.549C340.813 313.352 351.177 313.216 352.965 311.446C359.557 309.774 361.929 309.599 367.412 304.913C383.57 291.128 359.985 254.69 396.5 250.626C423.255 247.651 442.835 260.504 447.773 220.838C452.712 181.173 497.666 115.939 533.657 151.307C554.306 171.607 523.74 200.169 531.148 227.099C538.187 252.687 524.557 269.953 497.044 279.111C469.531 288.269 480.672 301.608 483.531 325.193C486.972 353.503 445.11 350.217 425.899 347.067C410.422 344.52 369.318 348.467 363.446 366.861Z" fill="url(#paint4_linear_39_3286)"/>
<path d="M347.638 338.921L347.482 338.337C437.935 314.227 504.277 239.057 524.946 137.288L525.549 137.405C515.749 185.645 494.847 229.549 465.098 264.392C433.813 301.005 393.214 326.788 347.638 338.921Z" fill="#FCFDFE"/>
<path d="M486.292 336.821C463.951 324.318 424.052 316.307 397.356 318.952L397.297 318.349C424.091 315.685 464.145 323.735 486.583 336.296L486.292 336.821Z" fill="#FCFDFE"/>
<path d="M365.332 334.001L365.021 333.476C376.959 326.302 384.834 313.352 388.373 294.997C390.978 281.542 391.25 265.54 389.17 247.457L389.773 247.379C391.853 265.54 391.581 281.581 388.975 295.114C385.398 313.624 377.445 326.71 365.332 334.001Z" fill="#FCFDFE"/>
<path d="M469.123 259.279L468.792 258.773C490.608 244.074 518.277 244.404 537.643 247.282L537.545 247.885C518.296 245.026 490.783 244.676 469.123 259.279Z" fill="#FCFDFE"/>
<path d="M501.633 208.569L501.049 208.414C508.827 179.812 497.122 150.977 489.461 136.336L490.005 136.044C497.705 150.763 509.449 179.754 501.633 208.569Z" fill="#FCFDFE"/>
<path opacity="0.2" d="M101.266 167.757C128.332 157.51 157.867 162.837 181.608 179.442C190.474 135.985 218.259 99.295 259.499 83.6622C327.047 58.0741 405.075 98.7505 433.794 174.523C441.202 194.045 444.585 213.994 444.41 233.302C447.89 231.143 451.624 229.277 455.571 227.78C492.475 213.799 535.115 236.024 550.806 277.42C566.497 318.815 549.834 365.228 512.385 377.711C492.378 384.38 460.782 384.38 460.782 384.38C460.782 384.38 153.511 360.27 144.023 360.308C106.166 360.464 68.9503 334.429 53.2592 293.052C33.6598 241.332 55.1452 185.237 101.266 167.757Z" fill="#EB8382"/>
<path d="M92.1271 167.757C119.193 157.51 148.728 162.837 172.469 179.442C181.335 135.985 209.12 99.2949 250.361 83.6621C317.908 58.0741 395.936 98.7505 424.655 174.523C432.063 194.045 435.446 213.994 435.271 233.302C438.752 231.143 442.485 229.277 446.432 227.779C483.336 213.799 525.977 236.024 541.668 277.42C557.359 318.815 540.151 363.731 503.247 377.711C495.43 380.666 451.643 384.38 451.643 384.38C451.643 384.38 144.373 360.27 134.884 360.308C97.027 360.464 59.8116 334.429 44.1205 293.052C24.5211 241.332 46.0065 185.236 92.1271 167.757Z" fill="#C9CAD6"/>
<path d="M4.55222 441.739L39.1233 273.434C45.9869 240.029 77.9331 219.477 109.588 228.654L123.898 232.796C129.031 234.293 134.359 235.051 139.706 235.051L171.652 235.129L303.073 235.421L337.683 235.499C343.594 235.518 349.505 234.74 355.221 233.185L371.34 228.81C407.894 218.913 446.062 241.429 454.443 278.45L497.55 469.174C504.763 501.062 486.622 531.55 455.493 540.3C420.863 550.041 383.453 528.381 373.926 493.654L359.129 439.717C356.057 428.537 345.966 420.429 334.513 419.884L142.584 411.057C132.201 410.571 123.159 417.376 120.418 427.681L107.332 476.874C98.9907 508.198 66.9668 523.345 38.2677 510.026C13.1852 498.359 -1.08649 469.291 4.55222 441.739Z" fill="url(#paint5_linear_39_3286)"/>
<path opacity="0.3" d="M172.761 323.851L279.662 326.826C289.171 327.098 296.929 318.31 296.929 307.188V235.44L156.642 235.09V304.038C156.642 314.732 163.836 323.599 172.761 323.851Z" fill="url(#paint6_linear_39_3286)"/>
<path opacity="0.3" d="M85.1078 467.541C85.4384 454.98 79.4691 448.525 80.733 429.334C81.3357 420.37 83.0273 394.86 99.8462 381.833C115.946 369.35 138.209 374.327 167.005 380.744C204.104 389.007 202.665 397.893 228.7 401.49C266.655 406.721 280.187 389.28 307.856 398.224C321.642 402.676 332.18 411.504 340.094 420.779C338.285 420.293 336.419 419.981 334.513 419.884L142.584 411.057C132.201 410.571 123.159 417.376 120.418 427.681L107.332 476.874C100.566 502.287 78.2053 517.064 54.6783 514.614C78.7497 495.54 84.7773 479.499 85.1078 467.541Z" fill="url(#paint7_linear_39_3286)"/>
<path d="M315.983 306.741C315.983 337.929 341.494 364.022 373.401 365.072C405.794 366.122 432.413 341.02 432.413 308.977C432.413 276.933 405.794 250.801 373.401 250.626C341.494 250.432 315.983 275.572 315.983 306.741Z" fill="url(#paint8_linear_39_3286)"/>
<path d="M250.866 380.958C250.866 406.157 271.146 427.565 296.423 428.79C322.011 430.034 342.991 410.162 342.991 384.399C342.991 358.636 322.011 337.19 296.423 336.529C271.127 335.848 250.866 355.739 250.866 380.958Z" fill="url(#paint9_linear_39_3286)"/>
<path d="M259.635 381.288C259.635 401.626 276.026 418.893 296.423 419.826C317.014 420.779 333.852 404.776 333.852 384.049C333.852 363.342 317.014 346.076 296.423 345.492C276.026 344.909 259.635 360.931 259.635 381.288Z" fill="url(#paint10_linear_39_3286)"/>
<path d="M266.927 381.697C266.927 395.871 278.321 407.907 292.554 408.587C306.942 409.287 318.744 398.107 318.744 383.622C318.744 369.136 306.942 357.081 292.554 356.692C278.321 356.322 266.927 367.522 266.927 381.697Z" fill="url(#paint11_linear_39_3286)"/>
<path d="M271.865 381.872C271.865 393.304 281.082 403.007 292.554 403.551C304.142 404.096 313.611 395.093 313.611 383.447C313.611 371.8 304.142 362.097 292.554 361.767C281.082 361.417 271.865 370.439 271.865 381.872Z" fill="url(#paint12_linear_39_3286)"/>
<path d="M115.168 375.319C115.168 399.604 133.99 420.195 157.458 421.343C181.199 422.49 200.643 403.318 200.643 378.527C200.643 353.717 181.199 333.107 157.458 332.484C133.99 331.843 115.168 351.034 115.168 375.319Z" fill="url(#paint13_linear_39_3286)"/>
<path d="M123.315 375.63C123.315 395.23 138.52 411.835 157.439 412.71C176.532 413.585 192.165 398.146 192.165 378.216C192.165 358.286 176.552 341.662 157.439 341.117C138.52 340.573 123.315 356.031 123.315 375.63Z" fill="url(#paint14_linear_39_3286)"/>
<path d="M126.27 375.941C126.27 390.116 137.664 402.151 151.897 402.832C166.286 403.532 178.088 392.352 178.088 377.866C178.088 363.381 166.286 351.325 151.897 350.937C137.664 350.587 126.27 361.786 126.27 375.941Z" fill="url(#paint15_linear_39_3286)"/>
<path d="M131.209 376.136C131.209 387.569 140.425 397.271 151.897 397.816C163.486 398.36 172.955 389.358 172.955 377.711C172.955 366.064 163.486 356.361 151.897 356.031C140.425 355.681 131.209 364.703 131.209 376.136Z" fill="url(#paint16_linear_39_3286)"/>
<path d="M315.964 272.636C319.892 272.675 323.08 269.545 323.08 265.617V253.154C323.08 249.245 319.892 246.037 315.964 246.037C312.056 246.018 308.867 249.168 308.867 253.076V265.5C308.886 269.409 312.056 272.597 315.964 272.636Z" fill="url(#paint17_linear_39_3286)"/>
<path d="M143.459 270.556C147.036 270.595 149.933 267.6 149.933 263.848V251.948C149.933 248.215 147.036 245.162 143.459 245.143C139.881 245.123 137.003 248.137 137.003 251.87V263.731C137.003 267.464 139.9 270.517 143.459 270.556Z" fill="url(#paint18_linear_39_3286)"/>
<path d="M367.295 266.375L379.525 266.492C383.123 266.531 386.059 269.428 386.059 272.967V286.889C386.059 288.153 385.67 289.377 384.97 290.427L379.448 298.516C378.242 300.285 376.201 301.316 374.023 301.277L372.817 301.258C370.64 301.219 368.618 300.11 367.412 298.302L361.929 290.077C361.229 289.027 360.859 287.783 360.859 286.539V272.714C360.821 269.175 363.718 266.356 367.295 266.375Z" fill="url(#paint19_linear_39_3286)"/>
<path d="M367.295 349.07L379.525 349.42C383.123 349.517 386.059 346.737 386.059 343.198V329.276C386.059 328.012 385.67 326.768 384.97 325.699L379.448 317.396C378.242 315.588 376.201 314.46 374.023 314.421L372.817 314.402C370.64 314.363 368.618 315.393 367.412 317.143L361.929 325.154C361.229 326.185 360.859 327.39 360.859 328.654V342.479C360.821 346.017 363.718 348.973 367.295 349.07Z" fill="url(#paint20_linear_39_3286)"/>
<path d="M415.944 302.58V314.713C415.944 318.271 412.969 321.11 409.314 321.032L395.003 320.721C393.72 320.701 392.456 320.293 391.367 319.574L383.025 313.974C381.198 312.749 380.109 310.727 380.109 308.588V307.402C380.109 305.263 381.198 303.28 383.025 302.113L391.367 296.825C392.436 296.144 393.7 295.794 395.003 295.813L409.314 296.047C412.969 296.086 415.944 299.022 415.944 302.58Z" fill="url(#paint21_linear_39_3286)"/>
<path d="M331.713 301.083V312.982C331.713 316.482 334.571 319.379 338.091 319.457L352.013 319.768C353.276 319.788 354.521 319.457 355.571 318.777L363.815 313.546C365.623 312.399 366.712 310.435 366.712 308.296V307.11C366.712 304.971 365.623 302.949 363.815 301.744L355.571 296.202C354.521 295.483 353.276 295.094 352.013 295.075L338.091 294.841C334.571 294.802 331.713 297.602 331.713 301.083Z" fill="url(#paint22_linear_39_3286)"/>
<path d="M364.573 266.978L376.804 267.095C380.401 267.134 383.337 270.031 383.337 273.57V287.492C383.337 288.755 382.948 289.98 382.248 291.03L376.726 299.119C375.52 300.888 373.479 301.919 371.301 301.88L370.095 301.86C367.918 301.822 365.896 300.713 364.69 298.905L359.207 290.68C358.507 289.63 358.138 288.386 358.138 287.142V273.317C358.099 269.778 360.996 266.959 364.573 266.978Z" fill="url(#paint23_linear_39_3286)"/>
<path d="M364.573 349.673L376.804 350.023C380.401 350.12 383.337 347.339 383.337 343.801V329.879C383.337 328.615 382.948 327.371 382.248 326.301L376.726 317.999C375.52 316.19 373.479 315.063 371.301 315.024L370.095 315.004C367.918 314.965 365.896 315.996 364.69 317.746L359.207 325.757C358.507 326.787 358.138 327.993 358.138 329.257V343.081C358.099 346.639 360.996 349.575 364.573 349.673Z" fill="url(#paint24_linear_39_3286)"/>
<path d="M413.202 303.183V315.315C413.202 318.874 410.227 321.712 406.572 321.635L392.261 321.324C390.978 321.304 389.714 320.896 388.625 320.176L380.284 314.577C378.456 313.352 377.367 311.329 377.367 309.191V308.005C377.367 305.866 378.456 303.883 380.284 302.716L388.625 297.427C389.695 296.747 390.959 296.397 392.261 296.416L406.572 296.649C410.247 296.688 413.202 299.624 413.202 303.183Z" fill="url(#paint25_linear_39_3286)"/>
<path d="M328.972 301.705V313.605C328.972 317.104 331.83 320.002 335.349 320.079L349.271 320.39C350.535 320.41 351.779 320.079 352.829 319.399L361.073 314.168C362.882 313.021 363.971 311.057 363.971 308.919V307.732C363.971 305.594 362.882 303.572 361.073 302.366L352.829 296.825C351.779 296.105 350.535 295.716 349.271 295.697L335.349 295.463C331.83 295.405 328.972 298.205 328.972 301.705Z" fill="url(#paint26_linear_39_3286)"/>
<path d="M138.189 303.027C138.189 332.757 115.246 356.128 87.3048 355.214C59.753 354.32 37.7037 330.093 37.7037 301.102C37.7037 272.111 59.753 248.721 87.3048 248.876C115.246 249.051 138.189 273.298 138.189 303.027Z" fill="url(#paint27_linear_39_3286)"/>
<path d="M74.5498 268.534C74.5498 275.981 80.2468 282.105 87.3049 282.222C94.3825 282.319 100.138 276.311 100.138 268.806C100.138 261.301 94.3825 255.176 87.3049 255.117C80.2663 255.079 74.5498 261.067 74.5498 268.534Z" fill="url(#paint28_linear_39_3286)"/>
<path d="M74.5498 335.109C74.5498 342.556 80.2468 348.778 87.3049 349.011C94.3825 349.225 100.138 343.334 100.138 335.829C100.138 328.323 94.3825 322.101 87.3049 321.926C80.2663 321.751 74.5498 327.643 74.5498 335.109Z" fill="url(#paint29_linear_39_3286)"/>
<path d="M119.115 289.008C111.94 288.891 106.146 294.899 106.146 302.405C106.146 309.93 111.94 316.152 119.115 316.307C126.309 316.463 132.162 310.474 132.162 302.91C132.162 295.347 126.309 289.125 119.115 289.008Z" fill="url(#paint30_linear_39_3286)"/>
<path d="M56.0004 288.036C49.059 287.919 43.4398 293.83 43.4398 301.238C43.4398 308.646 49.059 314.752 56.0004 314.907C62.9613 315.063 68.6389 309.152 68.6389 301.705C68.6389 294.258 62.9808 288.133 56.0004 288.036Z" fill="url(#paint31_linear_39_3286)"/>
<path d="M71.8278 269.136C71.8278 276.583 77.5248 282.708 84.5829 282.825C91.6604 282.922 97.4158 276.914 97.4158 269.409C97.4158 261.903 91.6604 255.779 84.5829 255.72C77.5248 255.681 71.8278 261.689 71.8278 269.136Z" fill="url(#paint32_linear_39_3286)"/>
<path d="M71.8278 335.712C71.8278 343.159 77.5248 349.381 84.5829 349.614C91.6604 349.828 97.4158 343.937 97.4158 336.431C97.4158 328.926 91.6604 322.704 84.5829 322.529C77.5248 322.354 71.8278 328.246 71.8278 335.712Z" fill="url(#paint33_linear_39_3286)"/>
<path d="M116.393 289.63C109.218 289.514 103.424 295.522 103.424 303.027C103.424 310.552 109.218 316.774 116.393 316.929C123.587 317.085 129.44 311.096 129.44 303.533C129.44 295.969 123.587 289.727 116.393 289.63Z" fill="url(#paint34_linear_39_3286)"/>
<path d="M53.2783 288.639C46.3368 288.522 40.7176 294.433 40.7176 301.841C40.7176 309.229 46.3368 315.354 53.2783 315.51C60.2392 315.665 65.9167 309.754 65.9167 302.308C65.9167 294.861 60.2392 288.736 53.2783 288.639Z" fill="url(#paint35_linear_39_3286)"/>
<path opacity="0.3" d="M438.868 518.873C437.779 505.048 419.172 503.006 415.4 485.565C410.228 461.669 441.707 449.555 438.868 423.87C436.088 398.749 403.539 388.366 408.303 373.102C410.655 365.519 419.133 366.667 430.682 356.186C446.918 341.448 450.612 320.643 451.429 314.693C456.465 277.633 426.774 249.848 421.408 244.812C412.308 236.296 402.567 230.541 393.506 226.652C422.147 228.635 447.774 248.915 454.443 278.431L497.55 469.155C504.763 501.043 486.622 531.53 455.493 540.28C445.615 543.061 435.524 543.275 425.899 541.369C436.807 531.958 439.315 524.511 438.868 518.873Z" fill="url(#paint36_linear_39_3286)"/>
<path opacity="0.3" d="M195.393 299.391C210.89 290.836 220.067 301.024 231.306 293.286C244.411 284.244 236.264 267.387 249.447 257.354C260.53 248.915 271.146 257.198 287.168 250.898C290.279 249.673 293.584 247.904 296.929 245.318V307.188C296.929 318.29 289.171 327.098 279.662 326.826L172.761 323.851C170.505 323.793 168.366 323.171 166.441 322.121C168.95 321.226 171.497 320.06 174.024 318.563C185.321 311.874 184.952 305.146 195.393 299.391Z" fill="#5488D0"/>
<path d="M470.309 409.637C480.342 404.738 499.902 422.47 509.41 439.464C513.202 446.231 517.655 454.183 516.566 463.633C514.621 480.393 496.053 495.073 470.465 499.993C469.745 497.426 469.026 494.84 468.306 492.274C471.106 489.357 475.287 485.157 480.634 480.335C488.839 472.927 490.531 472.441 490.919 470.108C492.203 462.447 472.526 456.05 465.526 442.595C459.498 431.006 462.609 413.39 470.309 409.637Z" fill="url(#paint37_linear_39_3286)"/>
<path d="M483.473 544.286C483.473 544.286 481.82 548.349 482.637 549.944C483.453 551.538 487.4 550.527 492.981 551.383C498.542 552.238 502.391 553.541 502.703 552.374C503.014 551.227 491.464 545.122 490.55 544.286C489.636 543.45 483.473 544.286 483.473 544.286Z" fill="url(#paint38_linear_39_3286)"/>
<path d="M484.95 538.219L488.839 544.286C488.839 544.286 487.05 546.055 483.998 545.394L479.72 539.639L484.95 538.219Z" fill="url(#paint39_linear_39_3286)"/>
<path opacity="0.3" d="M465.526 442.575C459.498 431.006 462.609 413.39 470.309 409.618C472.331 408.626 474.742 408.568 477.367 409.229C475.987 413.234 476.259 416.132 476.94 418.173C479.992 427.312 493.195 426.281 497.317 436.684C499.922 443.256 495.781 446.522 499.475 451.811C503.305 457.275 509.566 456.361 511.511 461.688C512.949 465.655 510.111 467.91 511.199 471.255C511.511 472.188 512.113 473.121 513.105 474.016C506.319 486.207 490.55 496.104 470.445 499.973C469.726 497.407 469.006 494.821 468.287 492.254C471.087 489.338 475.267 485.138 480.614 480.316C488.82 472.908 490.511 472.421 490.9 470.088C492.203 462.447 472.526 456.05 465.526 442.575Z" fill="url(#paint40_linear_39_3286)"/>
<path d="M477.153 413.254C476.725 430.792 476.959 449.75 478.242 469.933C479.856 495.715 482.909 519.378 486.622 540.65C484.97 541.175 483.317 541.7 481.664 542.225C464.69 525.697 459.615 511.153 458.234 500.693C457.243 493.304 458.74 492.662 457.418 483.407C454.89 465.791 448.299 459.744 443.671 443.256C441.94 437.073 439.996 427.701 440.132 415.509C452.46 414.77 464.806 414.012 477.153 413.254Z" fill="url(#paint41_linear_39_3286)"/>
<path d="M489.306 381.852C488.994 381.93 487.653 382.377 487.128 387.958C485.845 401.432 492.864 406.876 491.133 414.187C489.481 421.206 481.022 424.609 472.312 428.109C466.498 430.442 448.512 437.695 438.052 429.548C433.657 426.126 433.171 421.984 430.021 406.779C422.049 368.144 418.958 364.839 422.302 356.478C428.058 342.109 443.496 336.179 446.063 335.187C473.439 324.629 505.774 344.034 518.549 366.297C520.241 369.233 530.274 386.752 523.216 395.054C518.938 400.09 509.138 400.888 502.663 397.466C494.03 392.877 492.183 381.191 489.306 381.852Z" fill="url(#paint42_linear_39_3286)"/>
<path d="M519.23 392.06C519.307 392.06 519.405 392.041 519.482 392.002C519.794 391.866 519.93 391.496 519.794 391.185C519.56 390.68 513.902 378.547 500.855 373.764C500.544 373.647 500.175 373.803 500.058 374.133C499.941 374.444 500.097 374.814 500.428 374.93C512.988 379.538 518.627 391.594 518.666 391.71C518.763 391.944 518.996 392.06 519.23 392.06Z" fill="url(#paint43_linear_39_3286)"/>
<path opacity="0.3" d="M440.21 351.539C441.94 356.245 436.749 360.328 438.985 365.422C442.174 372.733 454.832 368.98 459.362 376.233C464.729 384.808 452.44 398.885 457.515 403.707C459.829 405.904 462.492 403.085 469.239 404.64C478.845 406.837 481.742 414.44 486.214 413.273C487.614 412.904 489.325 411.64 490.764 407.712C491.386 409.89 491.678 411.971 491.153 414.207C489.5 421.226 481.042 424.628 472.331 428.128C466.517 430.462 448.532 437.714 438.071 429.567C433.677 426.145 433.191 422.004 430.041 406.798C422.069 368.164 418.977 364.858 422.322 356.497C424.149 351.948 426.949 348.234 430.021 345.259C436.593 346.698 439.315 349.07 440.21 351.539Z" fill="url(#paint44_linear_39_3286)"/>
<path d="M456.757 381.055C456.018 381.735 448.532 388.327 439.51 386.071C431.655 384.108 426.852 376.486 425.997 370.069C423.994 354.806 443.885 341.992 441.435 338.901C439.977 337.054 432.141 340.631 426.93 343.839C421.525 347.184 406.883 356.186 403.772 373.88C403.5 375.377 400.059 396.474 412.114 405.185C423.255 413.234 445.052 408.86 459.829 389.805C458.818 386.888 457.787 383.971 456.757 381.055Z" fill="url(#paint45_linear_39_3286)"/>
<path d="M505.055 367.094L496.13 395.58C495.839 396.513 494.983 397.154 494.011 397.193L446.024 398.885C444.526 398.943 443.36 397.563 443.69 396.085L449.893 367.503C450.126 366.472 451.021 365.714 452.071 365.694L502.78 364.119C504.374 364.061 505.541 365.597 505.055 367.094Z" fill="#D8DEE8"/>
<path d="M504.627 368.047L495.975 395.696C495.683 396.61 494.866 397.232 493.914 397.271L447.326 398.924C445.868 398.982 444.74 397.641 445.051 396.202L451.079 368.436C451.293 367.425 452.168 366.705 453.198 366.667L502.411 365.13C503.966 365.092 505.094 366.569 504.627 368.047Z" fill="url(#paint46_linear_39_3286)"/>
<path d="M445.071 396.182L450.826 369.68C451.798 371.994 453.062 373.161 454.268 373.744C457.729 375.455 460.431 372.364 467.995 372.655C470.892 372.772 476.803 373.005 480.497 376.816C483.958 380.413 482.481 384.108 484.658 389.163C485.747 391.71 487.789 394.607 491.717 397.31L447.346 398.885C445.888 398.963 444.76 397.621 445.071 396.182Z" fill="url(#paint47_linear_39_3286)"/>
<path d="M474.295 332.426C473.79 334.215 474.859 336.081 476.667 336.509C478.864 337.034 481.528 337.773 482.675 338.434C484.795 339.64 476.22 338.24 468.345 338.065C463.426 337.948 459.751 337.404 457.69 336.995C457.126 336.879 457.087 336.12 457.632 335.945C459.596 335.304 462.804 334.37 465.506 334.02C468.851 333.593 472.448 326.204 472.448 326.204L475.326 328.81L474.295 332.426Z" fill="url(#paint48_linear_39_3286)"/>
<path d="M502.819 376.174L502.275 375.28C501.789 373.433 500.019 372.227 498.114 372.461L495.255 372.811C494.361 372.927 493.758 373.763 493.933 374.658C494.206 375.941 494.886 377.458 496.636 377.341C499.63 377.147 501.536 381.502 501.536 381.502L502.683 379.888C503.461 378.799 503.519 377.341 502.819 376.174Z" fill="url(#paint49_linear_39_3286)"/>
<path d="M480.692 328.654C483.161 328.285 485.942 326.204 485.884 324.493C485.806 322.121 480.4 320.838 477.678 320.176C474.937 319.515 473.79 319.749 472.992 320.351C472.195 320.954 471.67 322.043 471.495 322.996C471.398 323.501 471.398 324.221 471.476 325.621C471.554 326.865 471.534 326.807 471.554 327.176C471.631 328.071 471.865 329.626 472.74 331.765C473.09 331.376 473.576 330.909 474.178 330.443C474.412 330.268 475.326 329.568 476.356 329.16C478.184 328.44 479.195 328.868 480.692 328.654Z" fill="url(#paint50_linear_39_3286)"/>
<path d="M471.456 329.354C471.456 329.354 471.612 332.795 474.859 334.312C477.776 335.673 481.625 329.587 480.575 327.273C480.226 326.496 479.117 325.66 478.009 325.407C477.348 325.251 477.017 325.387 475.948 325.115C474.956 324.862 474.762 324.629 474.373 324.707C473.887 324.804 473.284 325.349 472.817 327.487C472.584 326.651 472.04 326.087 471.476 326.049C471.379 326.049 471.126 326.068 470.892 326.204C470.095 326.729 470.251 328.012 471.456 329.354Z" fill="url(#paint51_linear_39_3286)"/>
<path d="M271.161 189.378C268.167 190.895 264.395 189.495 262.761 186.267C261.109 183.02 262.217 179.151 265.211 177.634C265.367 177.556 265.522 177.498 265.678 177.42C265.114 175.632 264.706 173.823 264.414 172.015C264.239 172.015 264.064 172.015 263.889 171.996C260.467 171.684 257.764 168.554 257.823 164.976C257.9 161.399 260.72 158.754 264.142 159.065C264.317 159.085 264.492 159.104 264.667 159.143C265.017 157.374 265.522 155.643 266.125 153.971C265.969 153.874 265.814 153.777 265.658 153.679C262.742 151.638 261.789 147.594 263.578 144.638C265.347 141.702 269.158 140.983 272.075 143.024C272.23 143.121 272.366 143.238 272.503 143.355C273.65 142.072 274.933 140.885 276.294 139.816C276.197 139.66 276.1 139.505 276.022 139.33C274.369 136.083 272.23 132.544 275.244 131.066C282.224 127.664 285.219 130.58 286.872 133.827C286.949 134.002 287.027 134.158 287.105 134.333C288.777 133.866 290.488 133.536 292.199 133.361C292.18 133.186 292.18 132.991 292.18 132.816C292.257 129.239 291.188 127.314 294.63 127.255C302.115 127.119 304.643 130.366 304.565 133.925C304.565 134.119 304.546 134.294 304.527 134.469C306.238 134.955 307.929 135.577 309.562 136.336C309.64 136.18 309.718 136.025 309.815 135.869C311.585 132.933 315.396 132.214 318.312 134.255C321.229 136.297 322.181 140.341 320.393 143.296C320.295 143.452 320.198 143.588 320.101 143.724C321.404 145.027 322.609 146.427 323.737 147.944C323.873 147.846 324.029 147.769 324.184 147.691C327.179 146.174 330.951 147.574 332.584 150.802C334.237 154.049 333.128 157.918 330.134 159.435C329.978 159.513 329.823 159.571 329.667 159.649C330.231 161.438 330.64 163.246 330.931 165.054C331.106 165.054 331.281 165.054 331.456 165.074C334.878 165.385 337.581 168.515 337.523 172.093C337.445 175.67 334.626 178.315 331.203 178.004C331.028 177.984 330.853 177.965 330.678 177.926C330.328 179.695 329.823 181.426 329.22 183.098C329.376 183.195 329.531 183.292 329.687 183.39C332.603 185.431 333.556 189.475 331.767 192.431C329.998 195.367 324.126 196.728 321.209 194.686C321.054 194.589 322.979 193.831 322.843 193.714C321.695 194.998 320.412 196.184 319.051 197.253C319.148 197.409 319.245 197.564 319.323 197.739C320.976 200.986 319.868 204.856 316.873 206.372C313.879 207.889 310.107 206.489 308.474 203.261C308.396 203.086 308.318 202.931 308.24 202.756C306.568 203.222 304.857 203.553 303.146 203.728C303.165 203.903 303.165 204.097 303.165 204.272C303.088 207.85 300.268 210.494 296.846 210.183C293.424 209.872 290.721 206.742 290.78 203.164C290.78 202.969 290.799 202.794 290.819 202.619C289.108 202.133 287.416 201.511 285.783 200.753C285.705 200.908 285.627 201.064 285.53 201.22C283.761 204.156 279.95 204.875 277.033 202.833C274.116 200.792 273.164 196.747 274.952 193.792C275.05 193.636 275.147 193.5 275.244 193.364C273.941 192.062 272.736 190.662 271.608 189.145C271.453 189.223 271.317 189.3 271.161 189.378ZM308.512 189.864C319.401 184.342 323.368 170.304 317.379 158.54C311.39 146.757 297.721 141.683 286.852 147.205C275.964 152.727 271.997 166.765 277.986 178.529C283.955 190.312 297.624 195.386 308.512 189.864Z" fill="url(#paint52_linear_39_3286)"/>
<path d="M263.889 171.995C260.467 171.684 257.764 168.554 257.823 164.976C257.9 161.398 260.72 158.754 264.142 159.065C264.317 159.085 264.492 159.104 264.667 159.143C265.017 157.374 265.522 155.643 266.125 153.971C265.97 153.874 265.814 153.777 265.658 153.679C262.742 151.638 259.106 146.68 261.186 143.938C265.095 138.727 269.158 140.982 272.075 143.044C272.23 143.141 272.367 143.257 272.503 143.374C273.65 142.091 274.933 140.905 276.294 139.835C276.197 139.68 276.1 139.524 276.022 139.349C275.128 137.58 275.05 135.635 275.633 133.983C278.453 138.96 281.252 143.957 283.975 148.974C275.303 155.332 272.522 167.873 277.966 178.548C282.555 187.609 291.694 192.684 300.618 192.042C301.007 193.072 301.416 194.103 301.824 195.133C302.971 197.914 304.293 200.617 305.615 203.339C304.779 203.494 303.963 203.611 303.127 203.708C303.146 203.883 303.146 204.078 303.146 204.253C303.068 207.83 300.91 210.864 294.708 210.533C291.285 210.358 290.683 206.722 290.76 203.144C290.76 202.95 290.78 202.775 290.799 202.6C289.088 202.114 287.397 201.492 285.763 200.733C285.686 200.889 285.608 201.044 285.511 201.2C283.741 204.136 277.597 205.38 274.661 203.339C271.744 201.297 273.144 196.708 274.914 193.772C275.011 193.617 275.108 193.481 275.205 193.345C273.903 192.042 272.697 190.642 271.569 189.125C271.433 189.223 271.278 189.3 271.122 189.378C268.128 190.895 264.356 189.495 262.722 186.267C261.07 183.02 262.178 179.151 265.172 177.634C265.328 177.556 265.483 177.498 265.639 177.42C265.075 175.631 264.667 173.823 264.375 172.015C264.239 172.015 264.064 172.015 263.889 171.995Z" fill="url(#paint53_linear_39_3286)"/>
<path d="M267.933 189.747C264.939 191.264 261.167 189.864 259.534 186.636C257.881 183.389 258.989 179.52 261.984 178.003C262.139 177.926 262.295 177.867 262.45 177.79C261.886 176.001 261.478 174.192 261.186 172.384C261.011 172.384 260.836 172.384 260.661 172.365C257.239 172.054 254.537 168.923 254.595 165.345C254.673 161.768 257.492 159.123 260.914 159.435C261.089 159.454 261.264 159.473 261.439 159.512C261.789 157.743 262.295 156.012 262.897 154.34C262.742 154.243 262.586 154.146 262.431 154.049C259.514 152.007 258.562 147.963 260.35 145.007C262.12 142.071 265.931 141.352 268.847 143.393C269.003 143.491 269.139 143.607 269.275 143.724C270.422 142.441 271.706 141.255 273.067 140.185C272.969 140.03 272.872 139.874 272.794 139.699C271.142 136.452 272.25 132.583 275.244 131.066C278.239 129.549 282.011 130.949 283.644 134.177C283.722 134.352 283.8 134.508 283.877 134.683C285.55 134.216 287.261 133.885 288.972 133.71C288.952 133.535 288.952 133.341 288.952 133.166C289.03 129.588 291.849 126.944 295.271 127.255C298.694 127.566 301.396 130.697 301.338 134.274C301.338 134.469 301.318 134.644 301.299 134.819C303.01 135.305 304.702 135.927 306.335 136.685C306.413 136.53 306.49 136.374 306.588 136.219C308.357 133.283 312.168 132.563 315.085 134.605C318.001 136.646 318.954 140.691 317.165 143.646C317.068 143.802 316.971 143.938 316.873 144.074C318.176 145.377 319.382 146.777 320.509 148.293C320.646 148.196 320.801 148.118 320.957 148.041C323.951 146.524 327.723 147.924 329.356 151.152C331.009 154.399 329.901 158.268 326.906 159.785C326.751 159.862 326.595 159.921 326.44 159.998C327.004 161.787 327.412 163.596 327.704 165.404C327.879 165.404 328.054 165.404 328.229 165.423C331.651 165.734 334.353 168.865 334.295 172.442C334.217 176.02 331.398 178.664 327.976 178.353C327.801 178.334 327.626 178.314 327.451 178.276C327.101 180.045 326.595 181.775 325.993 183.448C326.148 183.545 326.304 183.642 326.459 183.739C329.376 185.781 330.329 189.825 328.54 192.781C326.77 195.717 322.959 196.436 320.043 194.395C319.887 194.297 319.751 194.181 319.615 194.064C318.468 195.347 317.185 196.533 315.823 197.603C315.921 197.758 316.018 197.914 316.096 198.089C317.748 201.336 316.64 205.205 313.646 206.722C310.651 208.238 306.879 206.839 305.246 203.611C305.168 203.436 305.091 203.28 305.013 203.105C303.341 203.572 301.63 203.903 299.918 204.078C299.938 204.253 299.938 204.447 299.938 204.622C299.86 208.2 297.041 210.844 293.619 210.533C290.197 210.222 287.494 207.091 287.552 203.514C287.552 203.319 287.572 203.144 287.591 202.969C285.88 202.483 284.188 201.861 282.555 201.103C282.477 201.258 282.4 201.414 282.302 201.569C280.533 204.505 276.722 205.225 273.805 203.183C270.889 201.142 269.936 197.097 271.725 194.142C271.822 193.986 271.919 193.85 272.017 193.714C270.714 192.411 269.508 191.011 268.381 189.495C268.225 189.592 268.089 189.67 267.933 189.747ZM305.285 190.234C316.173 184.712 320.14 170.673 314.151 158.91C308.163 147.127 294.494 142.052 283.625 147.574C272.736 153.096 268.77 167.134 274.758 178.898C280.727 190.681 294.396 195.756 305.285 190.234Z" fill="url(#paint54_linear_39_3286)"/>
<path d="M344.795 144.346C339.895 146.835 333.712 144.541 331.028 139.232C328.326 133.924 330.115 127.586 335.034 125.097C335.287 124.961 335.539 124.863 335.812 124.747C334.898 121.811 334.217 118.836 333.751 115.88C333.478 115.88 333.187 115.88 332.895 115.842C327.295 115.336 322.843 110.203 322.959 104.35C323.076 98.4977 327.703 94.1618 333.303 94.6673C333.595 94.6867 333.887 94.7451 334.178 94.784C334.762 91.8868 335.559 89.048 336.57 86.3065C336.317 86.1509 336.064 85.9954 335.812 85.8204C331.028 82.4566 329.492 75.8457 332.389 71.0236C335.287 66.2016 341.528 65.0155 346.311 68.3793C346.564 68.5543 346.797 68.7293 347.011 68.9237C348.897 66.8238 350.978 64.8988 353.233 63.1295C353.078 62.8767 352.922 62.6045 352.786 62.3323C350.083 57.0241 346.564 51.2104 351.503 48.7994C362.955 43.219 367.855 48.0022 370.558 53.3103C370.694 53.5826 370.81 53.8742 370.927 54.1464C373.688 53.3687 376.469 52.8437 379.268 52.552C379.249 52.2604 379.23 51.9687 379.249 51.6576C379.366 45.805 377.635 42.6357 383.254 42.5385C395.504 42.3052 399.646 47.6133 399.529 53.4659C399.529 53.777 399.49 54.0686 399.471 54.3603C402.27 55.1575 405.031 56.188 407.715 57.4324C407.851 57.1797 407.967 56.9075 408.123 56.6547C411.02 51.8326 417.262 50.6465 422.045 54.0103C426.828 57.3741 428.364 63.985 425.467 68.8071C425.311 69.0598 425.156 69.2931 424.981 69.507C427.1 71.6264 429.083 73.9402 430.931 76.4096C431.164 76.254 431.417 76.1179 431.669 75.9818C436.569 73.493 442.752 75.7874 445.436 81.0955C448.138 86.4037 446.35 92.7424 441.43 95.2312C441.177 95.3673 440.925 95.4645 440.652 95.5811C441.566 98.5172 442.247 101.492 442.714 104.448C442.986 104.448 443.277 104.448 443.569 104.486C449.169 104.992 453.622 110.125 453.505 115.978C453.388 121.83 448.761 126.166 443.161 125.661C442.869 125.641 442.577 125.583 442.286 125.544C441.702 128.441 440.905 131.28 439.894 134.022C440.147 134.177 440.4 134.333 440.652 134.508C445.436 137.871 446.972 144.482 444.075 149.304C441.177 154.126 431.572 156.362 426.77 152.999C426.517 152.824 429.667 151.579 429.433 151.404C427.547 153.504 425.467 155.429 423.211 157.199C423.367 157.451 423.523 157.724 423.659 157.996C426.361 163.304 424.572 169.643 419.653 172.131C414.753 174.62 408.57 172.326 405.887 167.018C405.751 166.745 405.634 166.454 405.518 166.182C402.757 166.959 399.976 167.484 397.176 167.776C397.196 168.068 397.215 168.359 397.196 168.67C397.079 174.523 392.451 178.859 386.852 178.353C381.252 177.848 376.799 172.715 376.916 166.862C376.916 166.551 376.955 166.259 376.974 165.968C374.174 165.17 371.413 164.14 368.73 162.896C368.594 163.148 368.477 163.421 368.322 163.673C365.424 168.495 359.183 169.681 354.4 166.318C349.617 162.954 348.081 156.343 350.978 151.521C351.133 151.268 351.289 151.035 351.464 150.821C349.344 148.702 347.361 146.388 345.514 143.918C345.281 144.055 345.047 144.21 344.795 144.346ZM405.984 145.104C423.814 136.063 430.308 113.081 420.509 93.7729C410.709 74.4652 388.31 66.1627 370.499 75.2235C352.669 84.2649 346.175 107.247 355.975 126.555C365.774 145.863 388.154 154.165 405.984 145.104Z" fill="url(#paint55_linear_39_3286)"/>
<path d="M332.876 115.842C327.276 115.336 322.823 110.203 322.94 104.35C323.056 98.4978 327.684 94.1618 333.284 94.6674C333.576 94.6868 333.867 94.7452 334.159 94.784C334.742 91.8869 335.539 89.0481 336.55 86.3066C336.298 86.151 336.045 85.9955 335.792 85.8205C331.009 82.4567 325.079 74.3486 328.462 69.8571C334.878 61.3213 341.509 65.0156 346.311 68.3794C346.564 68.5544 346.797 68.7294 347.011 68.9238C348.897 66.8239 350.978 64.8989 353.233 63.1295C353.078 62.8768 352.922 62.6046 352.786 62.3323C351.308 59.4352 351.192 56.2464 352.164 53.5438C356.791 61.6907 361.361 69.8765 365.833 78.1013C351.619 88.5231 347.089 109.056 355.975 126.555C363.5 141.391 378.471 149.713 393.093 148.682C393.754 150.374 394.376 152.065 395.076 153.757C396.962 158.307 399.121 162.76 401.279 167.193C399.918 167.446 398.557 167.64 397.196 167.795C397.215 168.087 397.234 168.379 397.215 168.69C397.098 174.542 393.54 179.501 383.391 178.976C377.771 178.684 376.819 172.734 376.935 166.882C376.935 166.571 376.974 166.279 376.994 165.987C374.194 165.19 371.433 164.16 368.749 162.915C368.613 163.168 368.497 163.44 368.341 163.693C365.444 168.515 355.372 170.557 350.589 167.193C345.806 163.829 348.1 156.343 350.997 151.521C351.153 151.268 351.308 151.035 351.483 150.821C349.364 148.702 347.381 146.388 345.533 143.919C345.3 144.074 345.047 144.21 344.795 144.346C339.895 146.835 333.712 144.541 331.028 139.233C328.326 133.924 330.115 127.586 335.034 125.097C335.287 124.961 335.539 124.864 335.812 124.747C334.898 121.811 334.217 118.836 333.751 115.881C333.459 115.881 333.167 115.881 332.876 115.842Z" fill="url(#paint56_linear_39_3286)"/>
<path d="M339.506 144.93C334.606 147.418 328.423 145.124 325.74 139.816C323.037 134.508 324.826 128.169 329.745 125.68C329.998 125.544 330.251 125.447 330.523 125.33C329.609 122.394 328.929 119.419 328.462 116.464C328.19 116.464 327.898 116.464 327.606 116.425C322.007 115.919 317.554 110.786 317.671 104.934C317.787 99.0811 322.415 94.7451 328.015 95.2506C328.306 95.2701 328.598 95.3284 328.89 95.3673C329.473 92.4702 330.27 89.6314 331.281 86.8898C331.029 86.7343 330.776 86.5787 330.523 86.4037C325.74 83.0399 324.204 76.429 327.101 71.607C329.998 66.7849 336.239 65.5989 341.023 68.9626C341.275 69.1376 341.509 69.3126 341.723 69.5071C343.609 67.4071 345.689 65.4822 347.945 63.7128C347.789 63.46 347.634 63.1878 347.497 62.9156C344.795 57.6074 346.584 51.2688 351.503 48.78C356.403 46.2912 362.586 48.5855 365.269 53.8937C365.405 54.1659 365.522 54.4576 365.638 54.7298C368.399 53.952 371.18 53.427 373.98 53.1354C373.96 52.8437 373.941 52.5521 373.96 52.241C374.077 46.3884 378.705 42.0524 384.305 42.558C389.904 43.0635 394.357 48.1967 394.24 54.0492C394.24 54.3603 394.201 54.652 394.182 54.9436C396.982 55.7408 399.743 56.7714 402.426 58.0158C402.562 57.763 402.679 57.4908 402.834 57.238C405.732 52.416 411.973 51.2299 416.756 54.5937C421.539 57.9574 423.075 64.5683 420.178 69.3904C420.023 69.6432 419.867 69.8765 419.692 70.0904C421.812 72.2097 423.795 74.5236 425.642 76.9929C425.875 76.8374 426.128 76.7013 426.381 76.5651C431.281 74.0763 437.464 76.3707 440.147 81.6789C442.85 86.987 441.061 93.3257 436.142 95.8145C435.889 95.9506 435.636 96.0478 435.364 96.1645C436.278 99.1005 436.958 102.075 437.425 105.031C437.697 105.031 437.989 105.031 438.28 105.07C443.88 105.575 448.333 110.708 448.216 116.561C448.1 122.414 443.472 126.75 437.872 126.244C437.581 126.225 437.289 126.166 436.997 126.127C436.414 129.025 435.617 131.863 434.606 134.605C434.858 134.76 435.111 134.916 435.364 135.091C440.147 138.455 441.683 145.066 438.786 149.888C435.889 154.71 429.647 155.896 424.864 152.532C424.612 152.357 424.378 152.182 424.164 151.988C422.278 154.088 420.198 156.012 417.942 157.782C418.098 158.035 418.253 158.307 418.389 158.579C421.092 163.887 419.303 170.226 414.384 172.715C409.484 175.204 403.301 172.909 400.618 167.601C400.482 167.329 400.365 167.037 400.248 166.765C397.487 167.543 394.707 168.068 391.907 168.359C391.926 168.651 391.946 168.943 391.926 169.254C391.81 175.106 387.182 179.442 381.582 178.937C375.983 178.431 371.53 173.298 371.647 167.445C371.647 167.134 371.685 166.843 371.705 166.551C368.905 165.754 366.144 164.723 363.461 163.479C363.325 163.732 363.208 164.004 363.052 164.257C360.155 169.079 353.914 170.265 349.131 166.901C344.348 163.537 342.811 156.926 345.709 152.104C345.864 151.852 346.02 151.618 346.195 151.404C344.075 149.285 342.092 146.971 340.245 144.502C340.012 144.657 339.759 144.813 339.506 144.93ZM400.696 145.707C418.526 136.666 425.02 113.683 415.22 94.3757C405.42 75.068 383.021 66.7655 365.211 75.8263C347.381 84.8676 340.887 107.85 350.686 127.158C360.486 146.446 382.885 154.768 400.696 145.707Z" fill="url(#paint57_linear_39_3286)"/>
<path d="M126.62 220.43C120.496 210.611 107.293 192.995 84.4857 184.653C74.7832 181.114 59.3837 175.476 47.6397 183.681C36.4595 191.497 36.2067 206.527 36.2067 208.044C36.1873 220.721 43.9453 232.66 56.2338 239.057C58.3726 236.665 60.492 234.254 62.6309 231.863C57.0699 221.169 56.7588 211.894 59.8699 210.027C62.8642 208.219 70.4084 212.477 77.0776 221.013C93.5854 220.799 110.113 220.605 126.62 220.43Z" fill="url(#paint58_linear_39_3286)"/>
<path opacity="0.3" d="M48.3202 219.866C46.2008 215.161 42.1954 215.063 40.1538 209.872C37.7817 203.825 39.8816 195.483 44.237 193.539C47.4841 192.081 49.2924 195.911 54.6589 194.939C61.5615 193.695 63.253 188.561 68.7362 188.173C72.2944 187.92 73.3833 189.961 82.1135 195.639C92.3993 202.347 99.4574 206.819 104.357 204.505C105.563 203.941 107.332 202.619 108.635 199.081C117.268 206.605 123.101 214.791 126.62 220.41C110.093 220.605 93.5854 220.799 77.0582 220.994C70.3889 212.477 62.8447 208.2 59.8504 210.008C56.7588 211.875 57.0505 221.149 62.6114 231.843C60.4726 234.235 58.3532 236.646 56.2144 239.038C52.9673 237.346 50.0702 235.265 47.523 232.913C49.8563 227.216 49.7396 223.016 48.3202 219.866Z" fill="url(#paint59_linear_39_3286)"/>
<path d="M36.2068 282.3C36.2068 282.3 34.5735 288.522 32.5319 292.158C30.4903 295.794 28.0015 295.347 27.9238 292.158C27.846 288.969 33.7569 280.336 33.7569 280.336L36.2068 282.3Z" fill="url(#paint60_linear_39_3286)"/>
<path d="M142.953 228.421C121.759 210.3 98.4464 211.894 98.4464 211.894C82.0164 213.022 70.6418 220.955 65.2169 224.843C39.8622 243.023 33.4652 271.606 31.8319 280.492C32.0652 280.919 32.7652 282.008 34.1652 282.669C35.7984 283.467 37.2956 283.175 37.7429 283.058C40.7955 277.264 51.8201 258.112 75.6971 247.904C95.7631 239.329 113.749 241.837 120.651 243.16C124.676 244.696 130.781 246.212 137.684 244.734C140.173 244.209 148.047 242.498 149 238.026C149.545 235.518 147.795 232.543 142.953 228.421Z" fill="url(#paint61_linear_39_3286)"/>
<path d="M198.154 179.228C196.132 175.223 187.227 158.735 167.355 151.618C150.381 145.552 135.817 150.043 129.731 151.91C122.984 153.99 110.424 157.86 102.763 169.643C102.179 170.537 92.4381 185.839 98.524 192.431C102.549 196.806 112.679 196.417 122.187 190.059C121.604 192.295 120.457 195.522 117.987 198.633C114.662 202.814 111.979 202.969 111.512 205.4C110.89 208.705 115.343 211.058 123.159 218.544C129.906 225.018 128.934 225.524 135.039 231.202C143.167 238.785 147.075 242.732 150.07 242.848C161.872 243.276 172.002 202.794 173.733 195.717C181.88 190.234 190.027 184.731 198.154 179.228Z" fill="url(#paint62_linear_39_3286)"/>
<path d="M118.454 178.431C117.248 183.953 114.799 187.57 113.224 189.495C111.085 192.12 108.79 194.939 105.349 195.017C102.588 195.075 99.4185 193.345 98.6602 191.07C97.2992 187.045 103.152 180.57 113.243 174.717C114.974 175.942 116.723 177.187 118.454 178.431Z" fill="url(#paint63_linear_39_3286)"/>
<path opacity="0.3" d="M103.521 188.6C105.504 187.511 104.902 185.042 107.04 181.834C111.804 174.737 124.423 172.695 127.029 176.195C128.681 178.392 126.387 182.826 124.345 186.753C123.626 188.134 122.868 189.359 122.09 190.467C122.129 190.331 122.168 190.195 122.207 190.059C112.699 196.417 102.568 196.786 98.5435 192.431C97.2213 190.992 96.638 189.145 96.5602 187.103C99.3212 188.795 101.81 189.553 103.521 188.6Z" fill="url(#paint64_linear_39_3286)"/>
<path d="M139.667 167.426L112.29 166.746C111.26 166.726 110.501 167.698 110.774 168.69L114.487 182.106C114.662 182.728 115.187 183.176 115.829 183.214L140.873 185.431C141.825 185.509 142.623 184.712 142.525 183.759L141.145 168.807C141.087 168.048 140.445 167.446 139.667 167.426Z" fill="white"/>
<path d="M114.001 180.356C114.001 180.356 112.174 179.909 111.513 178.178C111.163 177.245 111.007 175.787 110.949 174.62C110.89 173.59 111.629 172.676 112.66 172.501L116.315 171.879C117.132 171.742 117.832 172.52 117.56 173.317C117.365 173.881 116.996 174.503 116.296 175.087C114.449 176.642 113.574 177.634 113.574 177.634L114.001 180.356Z" fill="url(#paint65_linear_39_3286)"/>
<path opacity="0.3" d="M149.72 220.43C149.622 214.48 139.064 212.516 136.77 202.114C135.778 197.603 136.303 191.322 139.589 189.436C143.789 187.045 148.903 193.87 154.795 191.692C159.986 189.767 158.936 183.37 163.253 181.562C168.25 179.442 174.647 186.306 180.46 191.206C178.224 192.722 175.988 194.22 173.772 195.736C172.041 202.814 161.93 243.296 150.109 242.868C147.289 242.771 143.614 239.212 136.323 232.368C147.056 227.507 149.759 223.482 149.72 220.43Z" fill="url(#paint66_linear_39_3286)"/>
<path d="M191.815 172.268C196.676 171.898 208.07 194.745 199.01 211.641C197.785 213.916 195.121 218.913 189.56 221.421C176.455 227.332 157.128 214.927 149 200.014C145.286 193.209 144.334 186.656 144.081 182.553C145.131 181.231 146.181 179.928 147.231 178.606C150.283 181.853 156.253 187.181 165.236 189.709C169.922 191.011 175.813 192.664 180.966 190.02C189.813 185.47 188.218 172.54 191.815 172.268Z" fill="url(#paint67_linear_39_3286)"/>
<path d="M147.756 142.752C147.756 142.752 152.053 149.363 153.608 149.868C155.164 150.374 163.953 151.851 163.972 152.299C163.991 152.746 159.111 153.815 153.2 154.224C147.289 154.632 142.409 152.182 141.476 151.521C140.523 150.86 143.75 149.499 145.228 149.654C146.706 149.81 145.403 145.202 145.403 145.202L147.756 142.752Z" fill="url(#paint68_linear_39_3286)"/>
<path d="M118.396 179.987C120.282 178.956 121.876 180.181 124.035 179.053C125.901 178.081 125.551 176.701 127.223 174.931C130.451 171.49 134.631 173.531 137.548 170.615C138.17 169.992 138.87 169.02 139.259 167.426L139.648 167.445C140.426 167.465 141.067 168.068 141.126 168.845L142.506 183.798C142.603 184.75 141.806 185.548 140.853 185.47L116.043 183.273C116.685 181.328 117.599 180.434 118.396 179.987Z" fill="url(#paint69_linear_39_3286)"/>
<path d="M146.55 179.481C146.298 178.645 145.811 177.459 144.898 176.273C142.856 173.648 139.337 171.976 138.442 172.792C138.034 173.162 138.014 174.231 139.609 177.265C140.464 177.478 141.592 177.887 142.525 178.82C143.867 180.162 143.964 181.698 144.703 181.756C145.111 181.795 145.714 181.406 146.55 179.481Z" fill="url(#paint70_linear_39_3286)"/>
<path d="M139.551 144.638C137.587 143.724 136.265 140.516 137.237 138.105C137.956 136.316 139.687 135.577 140.931 135.052C141.514 134.799 145.617 133.108 148.261 135.227C149.097 135.888 149.759 137.094 149.953 138.221C150.05 138.805 150.07 139.602 149.972 141.196C149.875 142.616 149.914 142.557 149.875 142.966C149.778 143.977 149.506 145.727 148.534 148.177C148.125 147.729 147.581 147.204 146.9 146.679C146.648 146.485 145.598 145.688 144.431 145.221C142.039 144.249 141.087 145.357 139.551 144.638Z" fill="url(#paint71_linear_39_3286)"/>
<path d="M150.05 145.455C150.05 145.455 149.875 149.363 146.181 151.074C142.875 152.61 138.501 145.727 139.706 143.082C140.114 142.207 141.359 141.255 142.623 140.963C143.381 140.788 143.75 140.944 144.975 140.633C146.103 140.341 146.317 140.088 146.764 140.166C147.309 140.283 148.009 140.905 148.534 143.335C148.806 142.382 149.409 141.76 150.05 141.721C150.147 141.721 150.459 141.741 150.692 141.896C151.586 142.48 151.411 143.918 150.05 145.455Z" fill="url(#paint72_linear_39_3286)"/>
<path d="M148.125 141.177C148.125 141.177 148.456 144.385 148.125 145.416C147.795 146.446 146.434 147.865 144.334 148.079C142.214 148.293 140.834 148.079 140.834 148.079C140.834 148.079 142.409 151.754 143.07 151.91C143.731 152.046 147.756 151.851 148.495 151.171C149.234 150.49 150.128 147.535 149.914 146.213C149.7 144.91 148.495 141.935 148.495 141.935L148.125 141.177Z" fill="url(#paint73_linear_39_3286)"/>
<defs>
<linearGradient id="paint0_linear_39_3286" x1="278.559" y1="567" x2="278.559" y2="0.139404" gradientUnits="userSpaceOnUse">
<stop stop-color="#746C89"/>
<stop offset="1" stop-color="#EB8382" stop-opacity="0"/>
</linearGradient>
<linearGradient id="paint1_linear_39_3286" x1="216.838" y1="51.6628" x2="139.311" y2="547.283" gradientUnits="userSpaceOnUse">
<stop offset="0.00359712" stop-color="#C37A87"/>
<stop offset="1" stop-color="#9571F6"/>
</linearGradient>
<linearGradient id="paint2_linear_39_3286" x1="168.263" y1="89.2604" x2="109.208" y2="466.791" gradientUnits="userSpaceOnUse">
<stop stop-color="#FF9085"/>
<stop offset="1" stop-color="#FB6FBB"/>
</linearGradient>
<linearGradient id="paint3_linear_39_3286" x1="430.832" y1="119.212" x2="349.696" y2="637.91" gradientUnits="userSpaceOnUse">
<stop offset="0.00359712" stop-color="#C37A87"/>
<stop offset="1" stop-color="#9571F6"/>
</linearGradient>
<linearGradient id="paint4_linear_39_3286" x1="458.366" y1="139.791" x2="385.86" y2="603.313" gradientUnits="userSpaceOnUse">
<stop stop-color="#FF9085"/>
<stop offset="1" stop-color="#FB6FBB"/>
</linearGradient>
<linearGradient id="paint5_linear_39_3286" x1="356.268" y1="221.236" x2="161.379" y2="583.173" gradientUnits="userSpaceOnUse">
<stop stop-color="#446381"/>
<stop offset="0.9964" stop-color="#826F8C"/>
</linearGradient>
<linearGradient id="paint6_linear_39_3286" x1="296.928" y1="280.968" x2="156.646" y2="280.968" gradientUnits="userSpaceOnUse">
<stop stop-color="#40447E"/>
<stop offset="0.9964" stop-color="#3C3B6B"/>
</linearGradient>
<linearGradient id="paint7_linear_39_3286" x1="136.631" y1="405.056" x2="40.5467" y2="306.242" gradientUnits="userSpaceOnUse">
<stop stop-color="#446381"/>
<stop offset="0.9964" stop-color="#826F8C"/>
</linearGradient>
<linearGradient id="paint8_linear_39_3286" x1="341.476" y1="361.139" x2="421.546" y2="230.843" gradientUnits="userSpaceOnUse">
<stop stop-color="#444B8C"/>
<stop offset="0.9964" stop-color="#26264F"/>
</linearGradient>
<linearGradient id="paint9_linear_39_3286" x1="342.997" y1="382.672" x2="250.86" y2="382.672" gradientUnits="userSpaceOnUse">
<stop stop-color="#444B8C"/>
<stop offset="0.9964" stop-color="#26264F"/>
</linearGradient>
<linearGradient id="paint10_linear_39_3286" x1="305.04" y1="305.694" x2="299.945" y2="353.009" gradientUnits="userSpaceOnUse">
<stop stop-color="#444B8C"/>
<stop offset="0.9964" stop-color="#26264F"/>
</linearGradient>
<linearGradient id="paint11_linear_39_3286" x1="290.68" y1="362.845" x2="299.324" y2="442.603" gradientUnits="userSpaceOnUse">
<stop stop-color="#444B8C"/>
<stop offset="0.9964" stop-color="#26264F"/>
</linearGradient>
<linearGradient id="paint12_linear_39_3286" x1="292.388" y1="353.194" x2="293.173" y2="421.557" gradientUnits="userSpaceOnUse">
<stop stop-color="#444B8C"/>
<stop offset="0.9964" stop-color="#26264F"/>
</linearGradient>
<linearGradient id="paint13_linear_39_3286" x1="200.642" y1="376.918" x2="115.168" y2="376.918" gradientUnits="userSpaceOnUse">
<stop stop-color="#444B8C"/>
<stop offset="0.9964" stop-color="#26264F"/>
</linearGradient>
<linearGradient id="paint14_linear_39_3286" x1="167.016" y1="290.83" x2="161.921" y2="338.145" gradientUnits="userSpaceOnUse">
<stop stop-color="#444B8C"/>
<stop offset="0.9964" stop-color="#26264F"/>
</linearGradient>
<linearGradient id="paint15_linear_39_3286" x1="150.024" y1="357.105" x2="158.668" y2="436.862" gradientUnits="userSpaceOnUse">
<stop stop-color="#444B8C"/>
<stop offset="0.9964" stop-color="#26264F"/>
</linearGradient>
<linearGradient id="paint16_linear_39_3286" x1="151.732" y1="347.453" x2="152.518" y2="415.816" gradientUnits="userSpaceOnUse">
<stop stop-color="#444B8C"/>
<stop offset="0.9964" stop-color="#26264F"/>
</linearGradient>
<linearGradient id="paint17_linear_39_3286" x1="325.838" y1="230.707" x2="308.368" y2="281.479" gradientUnits="userSpaceOnUse">
<stop stop-color="#AA80F9"/>
<stop offset="0.9964" stop-color="#6165D7"/>
</linearGradient>
<linearGradient id="paint18_linear_39_3286" x1="171.135" y1="177.477" x2="153.666" y2="228.248" gradientUnits="userSpaceOnUse">
<stop stop-color="#AA80F9"/>
<stop offset="0.9964" stop-color="#6165D7"/>
</linearGradient>
<linearGradient id="paint19_linear_39_3286" x1="314.967" y1="337.37" x2="328.979" y2="323.903" gradientUnits="userSpaceOnUse">
<stop stop-color="#AA80F9"/>
<stop offset="0.9964" stop-color="#6165D7"/>
</linearGradient>
<linearGradient id="paint20_linear_39_3286" x1="341.639" y1="365.123" x2="355.651" y2="351.656" gradientUnits="userSpaceOnUse">
<stop stop-color="#AA80F9"/>
<stop offset="0.9964" stop-color="#6165D7"/>
</linearGradient>
<linearGradient id="paint21_linear_39_3286" x1="341.696" y1="365.182" x2="355.708" y2="351.716" gradientUnits="userSpaceOnUse">
<stop stop-color="#AA80F9"/>
<stop offset="0.9964" stop-color="#6165D7"/>
</linearGradient>
<linearGradient id="paint22_linear_39_3286" x1="315.088" y1="337.495" x2="329.1" y2="324.029" gradientUnits="userSpaceOnUse">
<stop stop-color="#AA80F9"/>
<stop offset="0.9964" stop-color="#6165D7"/>
</linearGradient>
<linearGradient id="paint23_linear_39_3286" x1="380.537" y1="274.657" x2="363.7" y2="275.253" gradientUnits="userSpaceOnUse">
<stop stop-color="#4499D9"/>
<stop offset="1" stop-color="#6E6CC1"/>
</linearGradient>
<linearGradient id="paint24_linear_39_3286" x1="380.537" y1="322.708" x2="363.699" y2="323.302" gradientUnits="userSpaceOnUse">
<stop stop-color="#4499D9"/>
<stop offset="1" stop-color="#6E6CC1"/>
</linearGradient>
<linearGradient id="paint25_linear_39_3286" x1="409.221" y1="301.964" x2="385.363" y2="303.626" gradientUnits="userSpaceOnUse">
<stop stop-color="#4499D9"/>
<stop offset="1" stop-color="#6E6CC1"/>
</linearGradient>
<linearGradient id="paint26_linear_39_3286" x1="360.082" y1="300.947" x2="336.778" y2="302.551" gradientUnits="userSpaceOnUse">
<stop stop-color="#4499D9"/>
<stop offset="1" stop-color="#6E6CC1"/>
</linearGradient>
<linearGradient id="paint27_linear_39_3286" x1="57.288" y1="352.157" x2="142.454" y2="213.125" gradientUnits="userSpaceOnUse">
<stop stop-color="#444B8C"/>
<stop offset="0.9964" stop-color="#26264F"/>
</linearGradient>
<linearGradient id="paint28_linear_39_3286" x1="18.1831" y1="337.841" x2="37.2908" y2="318.733" gradientUnits="userSpaceOnUse">
<stop stop-color="#AA80F9"/>
<stop offset="0.9964" stop-color="#6165D7"/>
</linearGradient>
<linearGradient id="paint29_linear_39_3286" x1="51.5773" y1="371.235" x2="70.6851" y2="352.127" gradientUnits="userSpaceOnUse">
<stop stop-color="#AA80F9"/>
<stop offset="0.9964" stop-color="#6165D7"/>
</linearGradient>
<linearGradient id="paint30_linear_39_3286" x1="51.0881" y1="370.746" x2="70.1958" y2="351.638" gradientUnits="userSpaceOnUse">
<stop stop-color="#AA80F9"/>
<stop offset="0.9964" stop-color="#6165D7"/>
</linearGradient>
<linearGradient id="paint31_linear_39_3286" x1="18.9287" y1="338.587" x2="38.0364" y2="319.479" gradientUnits="userSpaceOnUse">
<stop stop-color="#AA80F9"/>
<stop offset="0.9964" stop-color="#6165D7"/>
</linearGradient>
<linearGradient id="paint32_linear_39_3286" x1="94.5727" y1="261.683" x2="77.4911" y2="262.474" gradientUnits="userSpaceOnUse">
<stop stop-color="#4499D9"/>
<stop offset="1" stop-color="#6E6CC1"/>
</linearGradient>
<linearGradient id="paint33_linear_39_3286" x1="94.5727" y1="328.486" x2="77.4911" y2="329.277" gradientUnits="userSpaceOnUse">
<stop stop-color="#4499D9"/>
<stop offset="1" stop-color="#6E6CC1"/>
</linearGradient>
<linearGradient id="paint34_linear_39_3286" x1="126.549" y1="295.636" x2="109.183" y2="296.447" gradientUnits="userSpaceOnUse">
<stop stop-color="#4499D9"/>
<stop offset="1" stop-color="#6E6CC1"/>
</linearGradient>
<linearGradient id="paint35_linear_39_3286" x1="63.1168" y1="294.55" x2="46.2944" y2="295.323" gradientUnits="userSpaceOnUse">
<stop stop-color="#4499D9"/>
<stop offset="1" stop-color="#6E6CC1"/>
</linearGradient>
<linearGradient id="paint36_linear_39_3286" x1="485.019" y1="290.564" x2="290.129" y2="652.501" gradientUnits="userSpaceOnUse">
<stop stop-color="#444B8C"/>
<stop offset="0.9964" stop-color="#26264F"/>
</linearGradient>
<linearGradient id="paint37_linear_39_3286" x1="516.732" y1="454.397" x2="462.356" y2="454.397" gradientUnits="userSpaceOnUse">
<stop stop-color="#4499D9"/>
<stop offset="0.9964" stop-color="#6E6CC1"/>
</linearGradient>
<linearGradient id="paint38_linear_39_3286" x1="502.72" y1="548.374" x2="482.424" y2="548.374" gradientUnits="userSpaceOnUse">
<stop stop-color="#311944"/>
<stop offset="1" stop-color="#6B3976"/>
</linearGradient>
<linearGradient id="paint39_linear_39_3286" x1="479.627" y1="512.808" x2="486.726" y2="557.252" gradientUnits="userSpaceOnUse">
<stop stop-color="#311944"/>
<stop offset="1" stop-color="#A03976"/>
</linearGradient>
<linearGradient id="paint40_linear_39_3286" x1="516.732" y1="454.401" x2="462.356" y2="454.401" gradientUnits="userSpaceOnUse">
<stop stop-color="#AA80F9"/>
<stop offset="0.9964" stop-color="#6165D7"/>
</linearGradient>
<linearGradient id="paint41_linear_39_3286" x1="477" y1="456" x2="454" y2="508" gradientUnits="userSpaceOnUse">
<stop stop-color="#4499D9"/>
<stop offset="0.9964" stop-color="#6E6CC1"/>
</linearGradient>
<linearGradient id="paint42_linear_39_3286" x1="456.624" y1="321.371" x2="490.368" y2="441.533" gradientUnits="userSpaceOnUse">
<stop stop-color="#FFC444"/>
<stop offset="0.9964" stop-color="#F36F56"/>
</linearGradient>
<linearGradient id="paint43_linear_39_3286" x1="510.757" y1="380.205" x2="504.893" y2="399.238" gradientUnits="userSpaceOnUse">
<stop stop-color="#FFC444"/>
<stop offset="0.9964" stop-color="#F36F56"/>
</linearGradient>
<linearGradient id="paint44_linear_39_3286" x1="437.338" y1="326.786" x2="471.082" y2="446.949" gradientUnits="userSpaceOnUse">
<stop stop-color="#FFC444"/>
<stop offset="0.9964" stop-color="#F36F56"/>
</linearGradient>
<linearGradient id="paint45_linear_39_3286" x1="415.685" y1="332.867" x2="449.43" y2="453.029" gradientUnits="userSpaceOnUse">
<stop stop-color="#FFC444"/>
<stop offset="0.9964" stop-color="#F36F56"/>
</linearGradient>
<linearGradient id="paint46_linear_39_3286" x1="480.688" y1="369.109" x2="460.318" y2="405.837" gradientUnits="userSpaceOnUse">
<stop offset="0.494" stop-color="#EBEFF2"/>
<stop offset="1" stop-color="white"/>
</linearGradient>
<linearGradient id="paint47_linear_39_3286" x1="448.309" y1="408.17" x2="471.971" y2="382.759" gradientUnits="userSpaceOnUse">
<stop offset="0.494" stop-color="#EBEFF2"/>
<stop offset="1" stop-color="white"/>
</linearGradient>
<linearGradient id="paint48_linear_39_3286" x1="466.956" y1="310.435" x2="470.865" y2="343.768" gradientUnits="userSpaceOnUse">
<stop stop-color="#311944"/>
<stop offset="1" stop-color="#A03976"/>
</linearGradient>
<linearGradient id="paint49_linear_39_3286" x1="503.305" y1="376.972" x2="493.897" y2="376.972" gradientUnits="userSpaceOnUse">
<stop stop-color="#311944"/>
<stop offset="1" stop-color="#A03976"/>
</linearGradient>
<linearGradient id="paint50_linear_39_3286" x1="462.441" y1="337.299" x2="481.578" y2="321.23" gradientUnits="userSpaceOnUse">
<stop stop-color="#AA80F9"/>
<stop offset="0.9964" stop-color="#6165D7"/>
</linearGradient>
<linearGradient id="paint51_linear_39_3286" x1="470.49" y1="314.94" x2="474.194" y2="324.199" gradientUnits="userSpaceOnUse">
<stop stop-color="#311944"/>
<stop offset="1" stop-color="#A03976"/>
</linearGradient>
<linearGradient id="paint58_linear_39_3286" x1="116.574" y1="192.563" x2="56.4212" y2="197.037" gradientUnits="userSpaceOnUse">
<stop stop-color="#4499D9"/>
<stop offset="1" stop-color="#6E6CC1"/>
</linearGradient>
<linearGradient id="paint59_linear_39_3286" x1="65.5538" y1="167.589" x2="78.7914" y2="203.921" gradientUnits="userSpaceOnUse">
<stop stop-color="#AA80F9"/>
<stop offset="0.9964" stop-color="#6165D7"/>
</linearGradient>
<linearGradient id="paint60_linear_39_3286" x1="36.2083" y1="287.524" x2="27.9278" y2="287.524" gradientUnits="userSpaceOnUse">
<stop stop-color="#311944"/>
<stop offset="1" stop-color="#6B3976"/>
</linearGradient>
<linearGradient id="paint61_linear_39_3286" x1="136.067" y1="227.555" x2="58.1242" y2="233.837" gradientUnits="userSpaceOnUse">
<stop stop-color="#4499D9"/>
<stop offset="1" stop-color="#6E6CC1"/>
</linearGradient>
<linearGradient id="paint62_linear_39_3286" x1="138.965" y1="152.711" x2="162.624" y2="240.022" gradientUnits="userSpaceOnUse">
<stop stop-color="#893976"/>
<stop offset="1" stop-color="#311944"/>
</linearGradient>
<linearGradient id="paint63_linear_39_3286" x1="102.342" y1="161.828" x2="127.161" y2="253.421" gradientUnits="userSpaceOnUse">
<stop stop-color="#893976"/>
<stop offset="1" stop-color="#311944"/>
</linearGradient>
<linearGradient id="paint64_linear_39_3286" x1="106.307" y1="161.56" x2="129.966" y2="248.871" gradientUnits="userSpaceOnUse">
<stop stop-color="#893976"/>
<stop offset="1" stop-color="#311944"/>
</linearGradient>


<linearGradient id="paint65_linear_39_3286" x1="114.291" y1="172.734" x2="114.479" y2="204.092" gradientUnits="userSpaceOnUse">
<stop stop-color="#FFC444"/>
<stop offset="0.9964" stop-color="#F36F56"/>
</linearGradient>
<linearGradient id="paint66_linear_39_3286" x1="142.127" y1="151.854" x2="165.785" y2="239.165" gradientUnits="userSpaceOnUse">
<stop stop-color="#893976"/>
<stop offset="1" stop-color="#311944"/>
</linearGradient>
<linearGradient id="paint67_linear_39_3286" x1="160.055" y1="173.186" x2="187.375" y2="206.421" gradientUnits="userSpaceOnUse">
<stop stop-color="#893976"/>
<stop offset="1" stop-color="#311944"/>
</linearGradient>
<linearGradient id="paint68_linear_39_3286" x1="163.968" y1="148.507" x2="141.286" y2="148.507" gradientUnits="userSpaceOnUse">
<stop stop-color="#FFC444"/>
<stop offset="0.9964" stop-color="#F36F56"/>
</linearGradient>
<linearGradient id="paint69_linear_39_3286" x1="142.538" y1="176.428" x2="116.057" y2="176.428" gradientUnits="userSpaceOnUse">
<stop offset="0.494" stop-color="#EBEFF2"/>
<stop offset="1" stop-color="white"/>
</linearGradient>
<linearGradient id="paint70_linear_39_3286" x1="142.355" y1="172.56" x2="142.543" y2="203.917" gradientUnits="userSpaceOnUse">
<stop stop-color="#FFC444"/>
<stop offset="0.9964" stop-color="#F36F56"/>
</linearGradient>
<linearGradient id="paint71_linear_39_3286" x1="159.577" y1="153.159" x2="140.142" y2="136.839" gradientUnits="userSpaceOnUse">
<stop stop-color="#311944"/>
<stop offset="1" stop-color="#6B3976"/>
</linearGradient>
<linearGradient id="paint72_linear_39_3286" x1="144.419" y1="142.058" x2="159.163" y2="172.705" gradientUnits="userSpaceOnUse">
<stop stop-color="#FFC444"/>
<stop offset="0.9964" stop-color="#F36F56"/>
</linearGradient>
<linearGradient id="paint73_linear_39_3286" x1="140.461" y1="160.541" x2="147.634" y2="142.322" gradientUnits="userSpaceOnUse">
<stop stop-color="#311944"/>
<stop offset="1" stop-color="#6B3976"/>
</linearGradient>
</defs>
</svg>
